<svg xmlns="http://www.w3.org/2000/svg" viewbox="0 0 256 256" class="phosphor-svg" height="256px" width="256px" fill="url(#8a8586d3c5b4bcc8bab2aa05)" style="vertical-align:-0.25em;" stroke="gold" stroke-width="10">
  <path d="M234.5,114.38l-45.1,39.36,13.51,58.6a16,16,0,0,1-23.84,17.34l-51.11-31-51,31a16,16,0,0,1-23.84-17.34L66.61,153.8,21.5,114.38a16,16,0,0,1,9.11-28.06l59.46-5.15,23.21-55.36a15.95,15.95,0,0,1,29.44,0h0L166,81.17l59.44,5.15a16,16,0,0,1,9.11,28.06Z"></path>
  <title>star-fill</title>
  <defs>
    <linearGradient id="8a8586d3c5b4bcc8bab2aa05" height="0" width="0">
      <stop offset="0" stop-color="gold"></stop>
      <stop offset="0.5" stop-color="gold"></stop>
      <stop offset="0.5" stop-color="#FFF"></stop>
      <stop offset="1" stop-color="#FFF"></stop>
    </linearGradient>
  </defs>
</svg>