<svg xmlns="http://www.w3.org/2000/svg" viewbox="0 0 256 256" class="phosphor-svg" height="256px" width="256px" fill="url(#14867d6c3f03a74246941a35)" style="vertical-align:-0.25em;" stroke="gold" stroke-width="10">
  <path d="M234,115.5l-45.2,37.6,14.3,58.1A16.5,16.5,0,0,1,187.3,232a16.1,16.1,0,0,1-8.7-2.6l-50.5-31.9h-.2L81,227.2a18,18,0,0,1-20.1-.6,18.5,18.5,0,0,1-7-19.6l13.5-53.1L22,115.5a16.8,16.8,0,0,1-5.2-18.1A16.5,16.5,0,0,1,31.4,86l59-3.8,22.4-55.8A16.4,16.4,0,0,1,128,16h0a16.4,16.4,0,0,1,15.2,10.4l22,55.5L224.6,86a16.4,16.4,0,0,1,14.6,11.4A16.8,16.8,0,0,1,234,115.5Z"></path>
  <title>star-fill</title>
  <defs>
    <linearGradient id="14867d6c3f03a74246941a35" height="0" width="0">
      <stop offset="0" stop-color="gold"></stop>
      <stop offset="0.5" stop-color="gold"></stop>
      <stop offset="0.5" stop-color="#FFF"></stop>
      <stop offset="1" stop-color="#FFF"></stop>
    </linearGradient>
  </defs>
</svg>